PathFileType	3	(X/Y/Z)	squats_1__view1_aligned.trc
DataRate	CameraRate	NumFrames	NumMarkers	Units	OrigDataRate	OrigDataStartFrame	OrigNumFrames
100.0	100.0	15	19	mm	100.0	1173	1660
Frame#	Time	pelvis			neck			head			hip_left			hip_right			knee_left			knee_right			ankle_left			ankle_right			heel_left			heel_right			toe_left			toe_right			shoulder_left			shoulder_right			elbow_left			elbow_right			wrist_left			wrist_right			
		X1	Y1	Z1	X2	Y2	Z2	X3	Y3	Z3	X4	Y4	Z4	X5	Y5	Z5	X6	Y6	Z6	X7	Y7	Z7	X8	Y8	Z8	X9	Y9	Z9	X10	Y10	Z10	X11	Y11	Z11	X12	Y12	Z12	X13	Y13	Z13	X14	Y14	Z14	X15	Y15	Z15	X16	Y16	Z16	X17	Y17	Z17	X18	Y18	Z18	X19	Y19	Z19	
1173	11.72000	89.572243	785.239705	115.406216	60.897058	1312.171931	-144.820175	55.500239	1446.320855	-276.552423	8.008670	790.864907	121.972158	171.135769	779.614505	108.840333	-140.257492	468.756670	-126.987208	217.348423	452.339186	-177.675496	-128.260785	148.933017	125.921230	243.303765	113.308111	45.035334	-117.068754	113.084602	173.554963	247.318915	80.364116	95.719635	-187.242844	65.258936	-35.998830	231.851859	12.017286	-120.731577	-123.123006	1252.199203	-87.409882	250.313754	1265.759410	-94.711807	-259.658311	1017.253078	7.253908	362.684675	999.018682	-48.026009	-239.525322	893.005506	-221.150980	378.077186	872.829541	-270.672753
1174	11.73000	89.035139	778.722781	118.822029	59.660963	1303.469389	-145.067290	54.058478	1437.054174	-277.344979	7.330842	784.348368	125.342899	170.739407	773.097196	112.301201	-141.848274	467.230944	-129.815902	217.191365	450.289355	-179.778546	-128.452628	149.246628	125.605770	242.173296	113.087258	46.193402	-117.184051	113.640722	173.422263	246.114716	80.370854	97.085615	-187.141095	65.171918	-36.026331	230.390338	11.669286	-119.227725	-124.205757	1243.803837	-87.562136	249.031545	1257.538561	-94.874925	-262.132938	1009.943322	7.198576	362.306708	991.394477	-48.467128	-241.291501	885.782872	-220.944088	377.071181	864.354995	-270.408521
1175	11.74000	88.498035	772.205858	122.237841	58.424869	1294.766846	-145.314404	52.616717	1427.787493	-278.137535	6.653015	777.831829	128.713640	170.343045	766.579888	115.762069	-143.439057	465.705218	-132.644596	217.034307	448.239524	-181.881596	-128.644471	149.560239	125.290309	241.042827	112.866405	47.351470	-117.299349	114.196842	173.289563	244.910516	80.377591	98.451594	-187.039346	65.084899	-36.053831	228.928816	11.321286	-117.723874	-125.288508	1235.408471	-87.714389	247.749336	1249.317711	-95.038042	-264.607565	1002.633567	7.143244	361.928741	983.770272	-48.908247	-243.057679	878.560237	-220.737196	376.065177	855.880450	-270.144289
1176	11.75000	87.960930	765.688935	125.653653	57.188774	1286.064304	-145.561519	51.174956	1418.520812	-278.930091	5.975188	771.315290	132.084380	169.946683	760.062580	119.222938	-145.029839	464.179491	-135.473290	216.877249	446.189692	-183.984645	-128.836314	149.873850	124.974849	239.912358	112.645553	48.509537	-117.414646	114.752962	173.156863	243.706317	80.384328	99.817574	-186.937597	64.997880	-36.081332	227.467295	10.973286	-116.220022	-126.371258	1227.013105	-87.866643	246.467128	1241.096862	-95.201159	-267.082192	995.323811	7.087913	361.550773	976.146066	-49.349366	-244.823858	871.337603	-220.530304	375.059173	847.405904	-269.880057
1177	11.76000	88.202748	758.789625	127.306546	56.806785	1276.788680	-146.169395	50.744856	1408.790773	-279.770251	6.108052	764.372959	133.870984	170.297453	753.206291	120.742117	-145.510836	462.755546	-138.824740	217.976127	444.303833	-186.577838	-127.243115	150.232963	123.396966	239.936039	112.654244	48.615040	-115.651683	115.332775	171.700770	243.605100	80.573228	100.089622	-185.199498	64.999182	-37.339793	227.400270	10.963819	-115.846800	-126.364783	1218.494644	-88.002016	245.856535	1232.167178	-96.282216	-268.045951	987.440381	6.742814	361.677076	967.791657	-50.552784	-246.534534	863.485606	-220.660211	374.534032	838.240201	-270.579869
1178	11.77000	88.444567	751.890315	128.959439	56.424796	1267.513056	-146.777271	50.314756	1399.060735	-280.610412	6.240916	757.430628	135.657588	170.648223	746.350002	122.261296	-145.991833	461.331601	-142.176190	219.075006	442.417974	-189.171031	-125.649916	150.592077	121.819083	239.959720	112.662936	48.720542	-113.888719	115.912588	170.244677	243.503883	80.762128	100.361669	-183.461398	65.000485	-38.598254	227.333245	10.954351	-115.473578	-126.358309	1209.976183	-88.137388	245.245943	1223.237494	-97.363273	-269.009711	979.556952	6.397716	361.803378	959.437248	-51.756201	-248.245211	855.633609	-220.790118	374.008891	829.074498	-271.279681
1179	11.78000	88.686385	744.991005	130.612331	56.042807	1258.237431	-147.385147	49.884656	1389.330696	-281.450572	6.373781	750.488297	137.444193	170.998993	739.493713	123.780475	-146.472830	459.907656	-145.527640	220.173885	440.532116	-191.764224	-124.056718	150.951190	120.241199	239.983400	112.671627	48.826044	-112.125755	116.492401	168.788584	243.402666	80.951028	100.633717	-181.723299	65.001787	-39.856715	227.266221	10.944883	-115.100357	-126.351834	1201.457722	-88.272761	244.635351	1214.307810	-98.444330	-269.973471	971.673523	6.052618	361.929681	951.082838	-52.959618	-249.955887	847.781612	-220.920025	373.483750	819.908795	-271.979494
1180	11.79000	88.928203	738.091695	132.265224	55.660818	1248.961807	-147.993023	49.454556	1379.600658	-282.290733	6.506645	743.545965	139.230797	171.349763	732.637424	125.299653	-146.953828	458.483711	-148.879090	221.272763	438.646257	-194.357417	-122.463519	151.310304	118.663316	240.007081	112.680319	48.931546	-110.362792	117.072214	167.332491	243.301449	81.139928	100.905764	-179.985199	65.003090	-41.115176	227.199196	10.935415	-114.727135	-126.345359	1192.939261	-88.408133	244.024758	1205.378126	-99.525387	-270.937230	963.790094	5.707519	362.055983	942.728429	-54.163035	-251.666564	839.929615	-221.049932	372.958609	810.743092	-272.679306
1181	11.80000	89.170021	731.192385	133.918117	55.278829	1239.686183	-148.600899	49.024456	1369.870620	-283.130893	6.639509	736.603634	141.017401	171.700532	725.781135	126.818832	-147.434825	457.059765	-152.230540	222.371642	436.760398	-196.950610	-120.870320	151.669417	117.085433	240.030762	112.689010	49.037048	-108.599828	117.652027	165.876398	243.200232	81.328828	101.177812	-178.247099	65.004392	-42.373637	227.132171	10.925947	-114.353913	-126.338885	1184.420800	-88.543506	243.414166	1196.448442	-100.606444	-271.900990	955.906665	5.362421	362.182285	934.374020	-55.366452	-253.377240	832.077618	-221.179839	372.433468	801.577389	-273.379118
1182	11.81000	89.411839	724.293075	135.571009	54.896840	1230.410559	-149.208775	48.594356	1360.140581	-283.971054	6.772373	729.661303	142.804005	172.051302	718.924846	128.338011	-147.915822	455.635820	-155.581990	223.470521	434.874539	-199.543802	-119.277121	152.028531	115.507549	240.054443	112.697701	49.142550	-106.836864	118.231840	164.420305	243.099015	81.517728	101.449859	-176.509000	65.005694	-43.632098	227.065146	10.916479	-113.980691	-126.332410	1175.902339	-88.678878	242.803574	1187.518759	-101.687501	-272.864750	948.023235	5.017322	362.308588	926.019611	-56.569869	-255.087916	824.225620	-221.309747	371.908327	792.411686	-274.078930
1183	11.82000	89.653657	717.393765	137.223902	54.514850	1221.134935	-149.816651	48.164256	1350.410543	-284.811214	6.905238	722.718972	144.590609	172.402072	712.068557	129.857190	-148.396819	454.211875	-158.933440	224.569399	432.988680	-202.136995	-117.683923	152.387644	113.929666	240.078124	112.706393	49.248052	-105.073901	118.811653	162.964211	242.997798	81.706628	101.721907	-174.770900	65.006997	-44.890559	226.998122	10.907011	-113.607470	-126.325935	1167.383878	-88.814251	242.192982	1178.589075	-102.768558	-273.828509	940.139806	4.672224	362.434890	917.665201	-57.773286	-256.798593	816.373623	-221.439654	371.383187	783.245983	-274.778742
1184	11.83000	89.895475	710.494455	138.876795	54.132861	1211.859311	-150.424527	47.734155	1340.680505	-285.651375	7.038102	715.776640	146.377213	172.752842	705.212269	131.376369	-148.877816	452.787930	-162.284890	225.668278	431.102821	-204.730188	-116.090724	152.746758	112.351783	240.101804	112.715084	49.353554	-103.310937	119.391466	161.508118	242.896581	81.895528	101.993954	-173.032801	65.008299	-46.149020	226.931097	10.897543	-113.234248	-126.319460	1158.865417	-88.949623	241.582389	1169.659391	-103.849615	-274.792269	932.256377	4.327126	362.561193	909.310792	-58.976703	-258.509269	808.521626	-221.569561	370.858046	774.080279	-275.478554
1185	11.84000	90.137293	703.595145	140.529687	53.750872	1202.583687	-151.032403	47.304055	1330.950466	-286.491535	7.170966	708.834309	148.163817	173.103612	698.355980	132.895548	-149.358814	451.363985	-165.636340	226.767157	429.216962	-207.323381	-114.497525	153.105872	110.773900	240.125485	112.723776	49.459056	-101.547974	119.971279	160.052025	242.795364	82.084428	102.266002	-171.294701	65.009602	-47.407481	226.864072	10.888075	-112.861026	-126.312986	1150.346956	-89.084996	240.971797	1160.729707	-104.930672	-275.756029	924.372948	3.982027	362.687495	900.956383	-60.180120	-260.219946	800.669629	-221.699468	370.332905	764.914576	-276.178366
1186	11.85000	90.379111	696.695835	142.182580	53.368883	1193.308063	-151.640279	46.873955	1321.220428	-287.331696	7.303830	701.891978	149.950422	173.454382	691.499691	134.414727	-149.839811	449.940040	-168.987790	227.866035	427.331103	-209.916574	-112.904327	153.464985	109.196016	240.149166	112.732467	49.564559	-99.785010	120.551092	158.595932	242.694147	82.273328	102.538049	-169.556602	65.010904	-48.665942	226.797047	10.878607	-112.487804	-126.306511	1141.828496	-89.220368	240.361205	1151.800023	-106.011729	-276.719788	916.489518	3.636929	362.813798	892.601974	-61.383537	-261.930622	792.817632	-221.829375	369.807764	755.748873	-276.878178
1187	11.86000	90.399158	690.212033	143.219128	53.139149	1184.763166	-152.182401	46.900606	1312.041360	-288.132637	7.253442	695.309035	150.869042	173.544863	685.115030	135.569203	-148.850706	448.961260	-172.541606	229.553597	425.959352	-211.946065	-110.487943	153.961381	106.978496	240.163087	113.160218	49.513041	-97.339813	121.240573	156.502435	242.487120	82.881701	102.615291	-166.434623	65.190790	-50.782255	226.887723	11.184710	-112.240707	-126.134820	1134.235664	-89.500384	239.804146	1143.644772	-106.786686	-277.056377	909.257758	2.924663	362.994271	884.898490	-63.077586	-263.446195	785.110572	-222.217884	370.444271	746.987068	-278.078751
